<?xml version="1.0" encoding="UTF-8" standalone="no"?>
<!-- Created with Inkscape (http://www.inkscape.org/) -->

<svg
   xmlns:dc="http://purl.org/dc/elements/1.1/"
   xmlns:cc="http://creativecommons.org/ns#"
   xmlns:rdf="http://www.w3.org/1999/02/22-rdf-syntax-ns#"
   xmlns:svg="http://www.w3.org/2000/svg"
   xmlns="http://www.w3.org/2000/svg"
   xmlns:xlink="http://www.w3.org/1999/xlink"
   xmlns:sodipodi="http://sodipodi.sourceforge.net/DTD/sodipodi-0.dtd"
   xmlns:inkscape="http://www.inkscape.org/namespaces/inkscape"
   width="1280"
   height="720"
   viewBox="0 0 1280 720"
   version="1.1"
   id="svg8"
   inkscape:version="0.92.1 r"
   sodipodi:docname="catdraft1.svg"
   inkscape:export-filename="/home/leaf/feed/scratch/catdraft1.png"
   inkscape:export-xdpi="144"
   inkscape:export-ydpi="144">
  <defs
     id="defs2">
    <linearGradient
       inkscape:collect="always"
       id="linearGradient4517">
      <stop
         style="stop-color:#9f9479;stop-opacity:1"
         offset="0"
         id="stop4513" />
      <stop
         style="stop-color:#a6a6a6;stop-opacity:1"
         offset="1"
         id="stop4515" />
    </linearGradient>
    <linearGradient
       inkscape:collect="always"
       id="linearGradient4509">
      <stop
         style="stop-color:#e6e6e6;stop-opacity:1"
         offset="0"
         id="stop4505" />
      <stop
         style="stop-color:#978e78;stop-opacity:1"
         offset="1"
         id="stop4507" />
    </linearGradient>
    <linearGradient
       inkscape:collect="always"
       xlink:href="#linearGradient4509"
       id="linearGradient4511"
       x1="314.5"
       y1="250.99997"
       x2="317.5"
       y2="507.99997"
       gradientUnits="userSpaceOnUse" />
    <linearGradient
       inkscape:collect="always"
       xlink:href="#linearGradient4517"
       id="linearGradient4519"
       x1="315.5"
       y1="364"
       x2="316.5"
       y2="734"
       gradientUnits="userSpaceOnUse" />
    <pattern
       patternUnits="userSpaceOnUse"
       width="196.41393"
       height="227.80162"
       patternTransform="translate(-25.010705,312.37071)"
       id="pattern4542">
      <path
         id="path4538"
         d="m 168.40823,227.30262 c -2.36942,-0.14993 -4.69094,-0.56082 -7.02175,-0.98358 -1.39775,-0.3062 -2.64681,-0.98304 -3.97727,-1.46201 -1.26729,-0.54929 -2.49044,-1.19145 -3.7493,-1.75966 -1.37406,-0.6596 -2.70715,-1.37867 -4.03317,-2.12615 -1.22136,-0.75824 -2.47387,-1.47714 -3.76875,-2.10386 -1.29613,-0.58534 -2.44853,-1.38285 -3.61502,-2.18034 -1.02089,-0.64459 -1.93897,-1.42065 -2.90316,-2.14175 -0.82646,-0.77123 -1.63049,-1.56468 -2.39935,-2.39454 -1.04007,-1.11431 -2.00365,-2.29748 -3.03524,-3.41735 -0.93448,-1.14972 -1.85887,-2.30669 -2.74226,-3.49523 -0.84393,-1.13199 -1.69764,-2.25258 -2.53685,-3.38819 -0.76422,-1.05779 -1.433,-2.18928 -2.20566,-3.24017 -0.70219,-1.0227 -1.52355,-1.95903 -2.23568,-2.97692 -0.84501,-1.01227 -1.59023,-2.10345 -2.33388,-3.19061 -0.70385,-1.09473 -1.48558,-2.13785 -2.15385,-3.25622 -0.68972,-0.97161 -1.33722,-1.99239 -1.84542,-3.07211 -0.51863,-1.07141 -1.01717,-2.15991 -1.61289,-3.19119 -0.62602,-1.04407 -1.13628,-2.14454 -1.68779,-3.22806 -0.45249,-1.00578 -0.94548,-1.99256 -1.45654,-2.97036 -0.67665,-1.13917 -1.19415,-2.37177 -1.62869,-3.62151 -0.37196,-1.25424 -0.84369,-2.45968 -1.09446,-3.748 -0.19495,-1.3702 -0.53798,-2.70947 -0.73244,-4.08062 -0.17817,-1.42509 -0.20235,-2.86262 -0.21986,-4.29677 -0.0103,-1.41681 -0.005,-2.83366 -0.003,-4.25049 0.002,-1.41409 0.003,-2.82819 0.003,-4.24229 -0.056,-1.35586 0.002,-2.68355 0.26796,-4.01339 0.2104,-1.30043 0.41115,-2.59487 0.68817,-3.88363 0.23035,-1.40783 0.42735,-2.81355 0.71449,-4.21199 0.31207,-1.38915 0.32845,-2.81539 0.48276,-4.22393 0.26948,-1.39236 0.47551,-2.79087 0.58499,-4.20475 0.0885,-1.40205 0.0909,-2.80756 0.0951,-4.21181 -0.10068,-1.45668 0.16486,-2.8808 0.38829,-4.31133 0.21322,-1.38413 0.26662,-2.78447 0.29992,-4.18227 0.0237,-1.41083 0.0194,-2.82194 0.0181,-4.23291 -0.002,-1.41432 -0.003,-2.82864 -0.004,-4.24297 -4.9e-4,-1.41427 -4.9e-4,-2.82854 -5.1e-4,-4.24281 0.11912,-1.27276 -0.16358,-2.49298 -0.3888,-3.73278 -0.0823,-1.207 -0.4408,-2.35624 -0.69162,-3.532038 -0.36416,-1.06787 -0.67405,-2.16204 -1.19669,-3.16551 -0.53144,-1.00171 -0.98868,-2.04568 -1.55245,-3.02947 -0.4418,-1.04313 -1.08615,-1.95545 -1.72357,-2.88592 -0.61867,-1.08083 -1.41818,-2.03565 -2.1719,-3.02236 -0.7521,-1.05107 -1.47588,-2.11449 -2.15561,-3.2154 -0.6844,-1.13995 -1.34042,-2.31517 -2.11043,-3.40087 -0.60401,-0.89586 -1.283,-1.76709 -2.077123,-2.50363 -0.659132,-0.94805 -1.460246,-1.78301 -2.175493,-2.68928 -0.763915,-0.90981 -1.620837,-1.73394 -2.399549,-2.62882 -0.698979,-0.8271 -1.597741,-1.41211 -2.420031,-2.0978 -0.911729,-0.63873 -1.71387,-1.41087 -2.570751,-2.1215 -0.962977,-0.74338 -2.024595,-1.35911 -2.992309,-2.09467 -1.059893,-0.69463 -2.116763,-1.3817 -3.153915,-2.11088 -1.257016,-0.69009 -2.403266,-1.55121 -3.594214,-2.34272 -1.004882,-0.57855 -2.001357,-1.15431 -3.027564,-1.69525 -0.964851,-0.42343 -1.88567,-0.93475 -2.825898,-1.41472 -1.034064,-0.31195 -1.979539,-0.79887 -3.042927,-1.02377 -1.19716,-0.07 -2.303842,-0.51753 -3.479705,-0.72061 -1.293634,-0.17907 -2.602469,-0.18877 -3.905983,-0.20284 -1.085545,-0.003 -2.171102,1.5e-4 -3.256609,0.009 -0.633784,0.047 -1.405941,0.30943 -1.926864,0.69586 2.903729,-1.65928 5.807458,-3.31856 8.711187,-4.97783 -4.153333,2.27555 -7.338022,4.43798 -11.280962,6.269 -0.242857,0.12958 -0.530076,0.0151 -0.778494,0.0968 -0.04945,0.0162 -0.531015,0.37208 -0.590879,0.40169 -2.905493,1.43696 5.595331,-3.27427 8.410442,-4.8811 -3.288087,2.26728 -0.933004,0.65724 -9.777204,5.61327 -0.22651,0.12693 -0.966202,0.36914 -0.74119,0.23957 10.797082,-6.21715 11.350078,-6.5672 8.256864,-4.64843 -0.720239,0.54549 -1.305519,1.23129 -1.965267,1.84256 -0.657864,0.73492 -1.42233,1.35834 -1.976221,2.17985 -0.755024,0.97085 -1.342684,2.05498 -1.941731,3.12502 -0.655284,1.09865 -1.367869,2.162 -2.033839,3.25319 -0.551219,0.94199 -1.074607,1.89786 -1.575258,2.86775 -0.556109,0.95805 -0.922973,1.95127 -1.199069,3.01965 -0.353111,1.07149 -0.641992,2.15595 -1.015455,3.2207 -0.285928,1.09468 -0.738432,2.12601 -0.9835,3.23152 -0.230931,1.30267 -0.242557,2.63025 -0.260504,3.94917 -0.01063,1.41287 -0.0046,2.82579 -0.002,4.23867 -0.0055,1.39769 -0.04825,2.78654 0.164997,4.17069 0.157426,1.31787 0.425397,2.59721 0.763853,3.87771 0.291185,1.12306 0.654585,2.22889 0.995172,3.33986 0.417541,1.32841 0.677835,2.692908 1.148327,4.005508 0.527895,1.36673 0.929485,2.78434 1.493327,4.1362 0.531663,1.16242 1.055709,2.32657 1.62257,3.4724 0.452005,1.11053 1.114607,2.11176 1.58782,3.21321 0.5279,1.01301 0.985293,2.05182 1.555916,3.04302 0.565665,1.19412 1.319161,2.28227 1.909638,3.46093 0.677569,1.02517 1.11654,2.17797 1.643061,3.28224 0.533036,1.18293 0.977121,2.41105 1.570386,3.56597 0.483047,1.00725 0.970488,2.00793 1.43603,3.02423 0.545654,1.32105 1.22028,2.5823 1.744767,3.91201 0.60232,1.096 0.959454,2.29092 1.430674,3.44273 0.443599,1.0029 0.800847,2.03962 1.211445,3.05577 0.388012,1.05126 0.758906,2.10912 1.116486,3.1723 0.230564,1.15731 0.625867,2.26935 0.894033,3.41734 0.161372,1.22277 0.333137,2.42448 0.611466,3.62671 0.296183,1.3012 0.365928,2.63572 0.413442,3.96463 0.02512,1.37842 0.105144,2.7572 -0.119598,4.12215 -0.900466,4.85334 -6.07354,5.20021 -10.546805,7.65428 -0.967079,-0.24967 -1.790336,-0.94945 -2.472687,-1.65997 -0.8393,-1.06573 -1.29346,-2.29583 -1.584919,-3.60438 -0.408839,-1.19648 -0.692229,-2.41367 -0.848407,-3.66728 -0.0026,-1.24885 -0.3064,-2.44769 -0.53575,-3.66526 -0.08519,-1.20783 -0.439225,-2.35968 -0.688089,-3.53738 -0.353912,-1.11079 -0.734677,-2.2122 -1.204837,-3.27962 -0.53661,-1.18623 -1.174924,-2.35382 -1.920659,-3.42348 -0.597005,-0.95813 -1.391147,-1.76343 -2.103449,-2.63444 -0.981837,-0.87127 -1.740509,-1.95157 -2.60456,-2.92986 -0.830897,-1.0179 -1.707573,-1.99769 -2.471287,-3.07057 -0.712504,-0.96187 -1.549981,-1.81347 -2.320938,-2.72423 -0.760069,-0.8916 -1.640158,-1.66176 -2.417272,-2.54077 -0.817856,-1.02038 -1.68135,-2.00379 -2.501863,-3.02178 -0.881816,-1.11137 -1.812479,-2.18078 -2.68524,-3.29843 -0.737569,-1.0622 -1.537219,-2.07351 -2.3213,-3.10025 -0.92289,-1.05197 -1.607136,-2.27494 -2.418336,-3.40611 -0.635961,-0.93787 -1.332618,-1.86132 -2.159964,-2.64009 -0.724138,-0.80231 -1.19877,-1.79285 -1.93094,-2.5874 -0.664991,-0.91606 -1.35132,-1.81457 -2.02868,-2.72191 -0.585808,-1.01571 -1.281528,-1.96245 -1.912979,-2.94976 -0.673864,-1.17009 -1.464836,-2.25192 -2.262636,-3.33679 -0.636148,-1.15154 -1.36119,-2.243898 -2.085641,-3.339328 -0.746402,-1.03763 -1.376154,-2.14793 -2.073202,-3.21578 -0.682012,-0.87593 -1.142063,-1.84792 -1.630747,-2.83617 -0.450567,-1.08727 -1.13004,-2.04892 -1.651831,-3.09779 -0.554596,-0.94966 -1.105529,-1.91267 -1.5496402,-2.92028 -0.605428,-0.97057 -1.050442,-2.02343 -1.584724,-3.02966 -0.628146,-0.98602 -1.145628,-1.99301 -1.585311,-3.07836 -0.409398,-1.19549 -0.859555,-2.37511 -1.334927,-3.54657 -0.407997,-1.21841 -0.981934,-2.36796 -1.350955,-3.59941 -0.498929,-1.30546 -0.799069,-2.65744 -0.976,-4.0399 -0.290837,-1.40752 -0.566008,-2.81194 -0.718749,-4.24209 0.0081,-1.28799 -0.299854,-2.52449 -0.536214,-3.77958 -0.255219,-1.31734 -0.212435,-2.66409 -0.357973,-3.99185 -0.27183305,-1.41098 -0.46374605,-2.83112 -0.57119405,-4.26358 -0.08825,-1.42367 -0.09194,-2.85067 -0.09654,-4.2765 -0.0577,-1.35671 0.0033,-2.68518 0.270497,-4.01545 0.200283,-1.20341 0.36402505,-2.39807 0.67418105,-3.57943 0.246401,-1.17974 0.405605,-2.363 0.711966,-3.53047 0.244824,-1.18118 0.402428,-2.36567 0.707932,-3.53452 0.23595,-1.10924 0.577087,-2.20352 1.054676,-3.23292 0.43646,-0.96801 0.866686,-1.94499 1.379273,-2.87572 0.542431,-1.05224 1.220227,-2.023 1.779664,-3.0646 0.505851,-0.95779 1.208128,-1.77138 1.885796,-2.60569 0.745689,-1.10354 1.6293592,-2.07408 2.6270992,-2.95357 0.964809,-0.89415 1.882656,-1.85034 2.979395,-2.58403 1.042959,-0.74753 2.129282,-1.43382 3.154135,-2.20716 31.89793,-18.3769303 -5.859696,3.25315 1.51082,-0.97201 3.176688,-1.82105 6.327626,-3.6891703 9.548713,-5.4304703 2.895817,-1.56547 -11.386451,6.6113103 -8.572651,4.9028103 3.119989,-1.89441 6.327671,-3.6404903 9.491506,-5.4607303 0.982,-0.39679 1.88846,-0.94558 2.839599,-1.41686 1.203998,-0.36683 2.373615,-0.7843 3.619241,-1.00528 1.144296,-0.56748 2.391084,-0.74996 3.647623,-0.85954 1.151338,-0.38577 2.324815,-0.64298 3.488507,-0.98362 0.887396,-0.31933 1.853847,-0.24453 2.762465,-0.42051 0.397632,-0.077 0.772559,-0.24379 1.161443,-0.35698 1.255952,-0.32609 2.557374,-0.37631 3.847463,-0.41796 1.412155,0.0381 2.773498,-0.0248 4.156305,-0.29259 1.41215,-0.2747 2.849083,-0.3567 4.283576,-0.40611 1.250503,-0.0746 2.451246,-0.46433996 3.706405,-0.60396996 1.358271,-0.12062 2.723191,-0.12516 4.085716,-0.13264 1.413903,-0.003 2.827811,4.8e-4 4.241713,0.002 1.41504,0.002 2.830081,0.002 4.245121,0.002 1.414271,1.6e-4 2.828542,1.3e-4 4.242813,1.1e-4 1.436845,0.0456 2.845547,0.41091 4.279671,0.56460996 1.383923,0.41296 2.801829,0.64338 4.23767,0.76523 1.198453,0.44923 2.489679,0.50084 3.705963,0.8537 1.279308,0.22781 2.430303,0.81872 3.694046,1.10431 1.152254,0.27091 2.245276,0.66958 3.431429,0.82525 1.106347,0.38766 2.222017,0.64851 3.316897,1.06044 1.07613,0.29672 2.18201,0.60476 3.16759,1.13958 1.01044,0.37077 1.9948,0.81865 3.02695,1.13395 1.0224,0.54271 2.09251,1.01937 3.20247,1.3545 1.07121,0.51562 2.09409,1.1015103 3.13636,1.6738503 1.14357,0.57039 2.24476,1.24497 3.34166,1.9072 1.11847,0.61711 2.20635,1.27885 3.32778,1.89241 1.0788,0.5618 2.01922,1.3131 2.99949,2.02103 0.80343,0.67446 1.49413,1.4684 2.28369,2.15575 0.78383,0.79601 1.58445,1.57758 2.41521,2.32835 0.9594,0.72169 1.93688,1.44069 2.78921,2.28959 0.86488,0.75498 1.85322,1.3392 2.70583,2.10734 0.7779,0.6903 1.58897,1.31059 2.47784,1.85425 0.83056,0.65794 1.57936,1.40905 2.48272,1.97226 0.93479,0.64827 1.74246,1.44585 2.62276,2.15928 0.7455,0.69458 1.41587,1.47071 2.18309,2.14139 0.77589,0.72046 1.40024,1.55059 1.9793,2.43524 0.68417,0.74059 1.2356,1.56894 1.83404,2.37461 0.77218,0.86054 1.4022,1.81799 2.07835,2.74975 0.62366,0.86452 1.21296,1.74526 1.76809,2.65784 0.65592,0.80351 1.15436,1.71911 1.71383,2.59164 0.60079,1.04354 1.04473,2.16995 1.61497,3.22837 0.49635,0.95254 0.90451,1.95285 1.42637,2.89165 0.48463,0.99533 1.0314,1.951 1.37789,3.0064 0.31495,1.30604 0.6643,2.60279 1.06528,3.88497 0.32712,1.31501 0.63365,2.62625 0.99466,3.93301 0.37071,1.25075 0.3326,2.56347 0.51987,3.84087 0.30771,1.22333 0.48557,2.46597 0.58624,3.72159 0.0887,1.39683 0.0896,2.79721 0.0935,4.19625 10e-4,1.41596 -0.002,2.83191 -0.003,4.24786 -0.0198,1.43368 0.0481,2.86929 -0.0584,4.29983 -0.23991,1.37007 -0.35675,2.76301 -0.70359,4.11162 -0.37929,1.16585 -0.44629,2.39447 -0.74497,3.5775 -0.38523,1.19749 -0.45361,2.45333 -0.61936,3.69031 -0.3008,1.3689 -0.50424,2.75037 -0.61421,4.14683 -0.0267,1.346028 -0.0939,2.667048 -0.36259,3.987348 -0.27715,1.24953 -0.35382,2.5275 -0.4035,3.80243 0.0198,1.34134 -0.0406,2.65522 -0.3031,3.97089 -0.27457,1.25142 -0.35275,2.53046 -0.40305,3.80682 -0.12393,1.23483 -0.43823,2.43547 -0.58736,3.66854 -0.0129,1.26805 -0.2828,2.49088 -0.53286,3.72567 -0.24174,1.28501 -0.28171,2.59458 -0.31308,3.89809 -0.10679,1.24264 -0.41946,2.4514 -0.5678,3.69028 -0.13399,1.35266 -0.14295,2.71336 -0.15351,4.07134 -0.006,1.41358 -0.002,2.82719 -7.1e-4,4.24078 0.002,1.41504 0.002,2.83008 0.002,4.24512 1.9e-4,1.41428 1.6e-4,2.82856 1.6e-4,4.24283 0.0287,1.39538 -0.0631,2.79553 0.0555,4.18713 0.24889,1.41472 0.44624,2.83372 0.55541,4.26606 0.031,1.25301 0.39585,2.46008 0.58336,3.69405 0.14869,1.13256 0.39793,2.27471 0.74474,3.36451 0.33741,1.12492 0.78211,2.19247 1.32429,3.23132 0.48068,1.00656 1.00309,1.99235 1.53169,2.97537 0.62557,0.78007 1.0167,1.70809 1.65047,2.48114 0.66302,0.78871 1.26443,1.61438 1.82169,2.48447 0.66022,0.76559 1.2435,1.60566 1.98392,2.29836 0.77829,0.77606 1.52556,1.59632 2.35923,2.31462 0.86022,0.93629 1.65843,1.92686 2.42294,2.94144 0.77694,0.92919 1.81503,1.5659 2.69708,2.38115 0.85043,0.59424 1.45451,1.47291 2.36351,1.98127 0.77461,0.6746 1.67721,1.15507 2.50035,1.75397 0.83528,0.57591 1.66386,1.14598 2.5451,1.65631 0.87452,0.70532 1.79615,1.35434 2.73288,1.97357 0.95424,0.53067 1.89646,1.06777 2.86547,1.57456 1.01423,0.37443 1.88466,1.04273 2.74883,1.68114 0.98965,0.84887 2.20766,1.33686 3.23538,2.13364 0.79681,0.58559 1.7493,0.77399 2.57978,1.29259 0.64512,0.59375 0.88328,1.35684 0.99604,2.19801 0.16947,0.83234 -0.092,1.52148 -0.36126,2.28852 -0.31937,0.63989 -0.7775,1.17455 -1.17517,1.7635 -2.66753,3.52039 -7.23285,4.74861 -11.07999,6.84599 -3.55516,1.39818 -0.74054,0.31695 8.19121,-4.74283 0.13613,-0.0771 -0.26463,0.16706 -0.39903,0.24716 -0.35564,0.21195 -0.64434,0.4223 -0.95423,0.69624 -0.50315,0.72055 -1.00397,1.4465 -1.59874,2.09636 -0.67954,0.52347 -1.29763,1.05131 -1.82796,1.74074 -0.397,0.78445 -0.64267,1.59667 -1.16401,2.3158 -0.61039,0.81762 -1.16421,1.66927 -1.71378,2.53059 -0.65029,0.79264 -1.09993,1.7173 -1.73058,2.52466 -2.64536,3.65369 -6.79304,4.82073 -10.87494,7.20999 -0.008,6.5e-4 -0.77593,0.0635 -0.80888,0.0772 -0.0999,0.0414 -0.1498,0.15894 -0.24076,0.2174 -0.32259,0.20734 -0.75155,0.24846 -1.11535,0.34125 -0.90659,0.1304 -1.82362,0.13174 -2.73736,0.1458 -0.15465,2.2e-4 -0.3093,4.3e-4 -0.46394,6.5e-4 0,0 8.52723,-6.21348 8.52723,-6.21348 v 0 c 0.15246,-0.004 0.30492,-0.008 0.45738,-0.0121 0.86667,-0.0326 1.74928,-0.0793 2.57181,-0.37905 0.69219,-0.25015 1.3861,-0.48764 2.03448,-0.80834 -2.90265,1.70641 -5.8053,3.41281 -8.70794,5.11922 0.33254,-0.23783 0.73166,-0.47909 1.01336,-0.77571 1.06209,-1.11839 -0.43618,0.22824 0.6688,-0.73065 0.5716,-0.85978 1.26947,-1.61987 1.71199,-2.56823 0.72131,-0.72636 1.0117,-1.72644 1.75195,-2.42829 0.42491,-0.76336 1.08222,-1.33235 1.19206,-2.25939 0.21358,-0.53023 0.43637,-0.76581 0.76954,-1.19631 0.29386,-0.3797 0.36816,-0.76127 0.92089,-0.84389 0.68345,-0.54391 1.17922,-1.18272 1.69026,-1.8757 0.2563,-0.6061 0.61563,-1.03294 1.18946,-1.36189 9.57766,-5.49035 6.14715,-3.91778 9.90502,-5.62166 3.57754,-1.32107 0.65292,-0.27476 -7.98309,4.81922 -0.0937,0.0553 0.18778,-0.10999 0.28097,-0.16615 0.36945,-0.22266 0.55353,-0.50878 0.77887,-0.87798 0.57154,-0.40542 0.78873,-1.0239 1.28504,-1.51413 0.0337,-0.0386 0.62166,-1.02791 0.63244,-1.05938 0.008,-0.0224 -0.005,-0.64138 -0.005,-0.65735 -0.0259,-0.50164 -0.0142,-1.03499 -0.48422,-1.33527 -0.87639,-0.46116 -1.85823,-0.73043 -2.62017,-1.40156 -1.06423,-0.72852 -2.22981,-1.30137 -3.23112,-2.12217 -0.85532,-0.59182 -1.71487,-1.16886 -2.68171,-1.56913 -0.97799,-0.54947 -1.97711,-1.05741 -2.91926,-1.66966 -0.90369,-0.64014 -1.82232,-1.25751 -2.70926,-1.92107 -0.86959,-0.55343 -1.73086,-1.11135 -2.57527,-1.7018 -0.85834,-0.54137 -1.66502,-1.14596 -2.48906,-1.73802 -0.87088,-0.63963 -1.59151,-1.45077 -2.44136,-2.1187 -0.95741,-0.82429 -2.00917,-1.55561 -2.7957,-2.55867 -0.73152,-0.95955 -1.48188,-1.90853 -2.33312,-2.766 -0.81055,-0.76572 -1.59999,-1.55531 -2.37614,-2.35541 -0.76103,-0.78002 -1.44339,-1.63354 -2.11101,-2.49381 -0.54482,-0.83886 -1.13316,-1.63193 -1.77275,-2.39956 -0.64,-0.84338 -1.10865,-1.79054 -1.73953,-2.64054 -0.52879,-0.98803 -1.05248,-1.9784 -1.53083,-2.9909 -0.5644,-1.08664 -1.0584,-2.19323 -1.40845,-3.37005 -0.40118,-1.13297 -0.64536,-2.35739 -0.82979,-3.53992 -0.16674,-1.26497 -0.55773,-2.49137 -0.60999,-3.76639 -0.0864,-1.41736 -0.24784,-2.82617 -0.53052,-4.2192 -0.21183,-1.42184 -0.0781,-2.86376 -0.1136,-4.29811 2e-5,-1.41423 5e-5,-2.82845 -6e-5,-4.24268 -1.7e-4,-1.41476 -4.3e-4,-2.82952 -0.002,-4.24429 -0.001,-1.4156 -0.005,-2.8312 -0.003,-4.2468 0.005,-1.38662 0.007,-2.77475 0.10163,-4.15881 0.10491,-1.22242 0.29071,-2.42883 0.61231,-3.61488 0.019,-1.35083 0.04,-2.70625 0.22766,-4.04645 0.20216,-1.22433 0.62127,-2.39789 0.5734,-3.65336 0.10504,-1.2198 0.28844,-2.42449 0.62509,-3.60433 0.0331,-1.32383 0.0764,-2.65336 0.31613,-3.95919 0.25819,-1.27383 0.50731,-2.50306 0.39018,-3.81808 0.0325,-1.32338 0.0746,-2.65262 0.3152,-3.95789 0.26352,-1.28908 0.51813,-2.53649 0.43619,-3.86755 0.0832,-1.42717 0.22255,-2.85242 0.56224,-4.244898 0.2771,-1.24205 0.18406,-2.54488 0.56505,-3.77341 0.3504,-1.18343 0.46099,-2.38287 0.74622,-3.58502 0.39653,-1.30329 0.55275,-2.6274 0.7851,-3.97104 0.23824,-1.37942 0.0571,-2.79357 0.11371,-4.18845 0.001,-1.41503 0.004,-2.83006 0.004,-4.24509 -0.001,-1.3762 0.002,-2.75327 -0.0647,-4.12824 -0.0777,-1.22224 -0.21481,-2.43808 -0.54127,-3.62272 -0.24969,-1.23997 -0.14562,-2.52688 -0.47564,-3.75889 -0.34142,-1.29987 -0.68763,-2.58636 -0.96205,-3.90237 -0.40219,-1.28026 -0.79077,-2.56695 -1.08303,-3.87649 -0.29317,-0.99956 -0.83744,-1.87906 -1.27754,-2.8172 -0.52168,-0.94464 -0.94111,-1.94397 -1.42951,-2.906 -0.55347,-1.03481 -0.98607,-2.13393 -1.56989,-3.15381 -0.57371,-0.87578 -1.08129,-1.79316 -1.73409,-2.61337 -0.54414,-0.88945 -1.11899,-1.74908 -1.72627,-2.59531 -0.65884,-0.94027 -1.31885,-1.87087 -2.07781,-2.73727 -0.59335,-0.8289 -1.20264,-1.63288 -1.85811,-2.41645 -0.53967,-0.80906 -1.11969,-1.56386 -1.84799,-2.21485 -0.72438,-0.69623 -1.42053,-1.42096 -2.1569,-2.10498 -0.82394,-0.72222 -1.64986,-1.44059 -2.5532,-2.06454 -0.86078,-0.61231 -1.63172,-1.32971 -2.48265,-1.95492 -0.89156,-0.61095 -1.74929,-1.2494 -2.54921,-1.97774 -0.89935,-0.73569 -1.88616,-1.35968 -2.73752,-2.15412 -0.8781,-0.80708 -1.83035,-1.52684 -2.76331,-2.2685 -0.83171,-0.75246 -1.63322,-1.53854 -2.43186,-2.3249 -0.73263,-0.69849 -1.43791,-1.42606 -2.22206,-2.06884 -0.92878,-0.71082 -1.89625,-1.35605 -2.92706,-1.91229 -1.10336,-0.64692 -2.21598,-1.2765 -3.32386,-1.91491 -1.10254,-0.63119 -2.17824,-1.31444 -3.32616,-1.86166 -1.01147,-0.51658 -1.95611,-1.16212 -3.03649,-1.5348 -1.09201,-0.40371 -2.15066,-0.88547 -3.21555,-1.35323 -1.038065,-0.39354 -2.091189,-0.75362 -3.094682,-1.22962 -1.023279,-0.40113 -2.062634,-0.74131 -3.113038,-1.0621 -1.041764,-0.37374 -2.130476,-0.62007 -3.198787,-0.90266 -1.182141,-0.23685 -2.307797,-0.656 -3.486922,-0.9055103 -1.22576,-0.367 -2.409547,-0.86557 -3.677186,-1.08866 -1.212739,-0.22839 -2.411358,-0.51022 -3.621404,-0.74401 -1.432935,-0.18005 -2.830582,-0.51208 -4.2476,-0.77951 -1.397565,-0.19163 -2.786311,-0.52284 -4.205555,-0.46019 -1.414316,0 -2.828633,2e-5 -4.242949,-3.3e-4 -1.415223,-4.6e-4 -2.830446,-0.001 -4.245668,-0.003 -1.411691,-0.002 -2.823444,-0.006 -4.235083,0.009 -1.339996,0.0219 -2.684797,0.0475 -4.01273,0.24627 -1.248399,0.21153 -2.477572,0.55767 -3.756062,0.52034 -1.412921,0.0845 -2.818248,0.2386 -4.209851,0.50373 -1.40466,0.19239 -2.818326,0.12294 -4.231866,0.19929 -1.258542,0.0839 -2.511019,0.23031 -3.723371,0.59714 -1.292495,0.30195 -2.63779,0.35368 -3.900507,0.79664 -1.179034,0.3434 -2.385619,0.6328003 -3.592657,0.8496403 -1.230468,0.19885 -2.388335,0.60423 -3.585336,0.93515 -1.181902,0.31145 -2.371215,0.68252 -3.461011,1.23916 -0.922635,0.51225 -1.901958,0.91994 -2.82601,1.43114 21.94468,-12.6892403 0.059,-0.022 -0.951763,0.51017 -2.904271,1.52923 5.68163,-3.28823 8.519693,-4.9370903 0.164458,-0.0956 -0.334582,0.18113 -0.498793,0.2771 -3.165434,1.8500103 -6.347936,3.6713603 -9.490019,5.5607603 -2.793075,1.67953 5.628616,-3.28741 8.442923,-4.93112 -1.065342,0.70752 -2.031717,1.55712 -3.15472,2.18382 -1.096784,0.89324 0.213012,-0.12186 -0.997584,0.65297 -0.763124,0.48843 -1.346417,1.25095 -2.039419,1.82476 -0.916377,0.90574 -2.066083,1.63024 -2.669926,2.81141 -0.66214,0.82531 -1.409304,1.57287 -1.935545,2.4896 -0.685316,0.93658 -1.130736,2.04208 -1.806989,2.99194 -0.476295,0.9408 -1.018515,1.84754 -1.401845,2.82845 -0.460356,0.98329 -0.960129,1.9703 -1.146567,3.05111 -0.276903,1.17966 -0.620298,2.31646 -0.707549,3.53525 -0.277351,1.17846 -0.622164,2.31393 -0.711459,3.53144 -0.28007,1.17992 -0.628203,2.3153 -0.696282,3.53831 -0.262699,1.27816 -0.5148812,2.50966 -0.3770292,3.83024 0.0014,1.40534 -4.54e-4,2.81145 0.06496,4.2156 0.08399,1.40989 0.2383372,2.81268 0.5367852,4.19527 0.219553,1.30679 0.124342,2.64063 0.348256,3.95062 0.222583,1.28629 0.606034,2.54194 0.565651,3.8614 0.125111,1.42703 0.363019,2.8336 0.711099,4.22415 0.137923,1.33213 0.388501,2.64016 0.90455,3.88411 0.324705,1.20448 0.906087,2.30834 1.288603,3.49397 0.495329,1.16333 0.928904,2.35145 1.338386,3.5464 0.442744,1.04544 0.919034,2.03536 1.537993,2.99093 0.545994,1.03206 1.013356,2.10321 1.631997,3.09909 0.421253,0.99856 0.985636,1.9365 1.518975,2.87782 0.510936,1.05187 1.205554,2.00551 1.65624,3.09021 0.475003,0.95087 0.905458,1.89317 1.568522,2.73922 0.679322,1.07412 1.315384,2.17429 2.058381,3.20896 0.712274,1.08184 1.429287,2.15953 2.064729,3.28979 0.810026,1.10229 1.577305,2.22635 2.285761,3.39732 0.626294,0.960538 1.319291,1.878688 1.890373,2.874768 0.669123,0.88006 1.309895,1.77944 1.981459,2.65569 0.684933,0.80546 1.202643,1.73318 1.901453,2.52531 0.82796,0.86447 1.587522,1.80038 2.235296,2.80769 0.786478,1.13325 1.493748,2.3221 2.410725,3.36138 0.786398,1.02058 1.547169,2.05643 2.303337,3.09898 0.872001,1.1117 1.790843,2.18303 2.686413,3.27567 0.817088,0.99819 1.631516,2.00006 2.472263,2.97736 0.796042,0.86885 1.678373,1.65437 2.436765,2.55733 0.803861,0.92095 1.618914,1.82979 2.350157,2.81155 0.757057,1.03753 1.625699,1.98487 2.424038,2.98942 0.851692,1.00261 1.672846,2.03244 2.628346,2.94247 0.742245,0.8855 1.54066,1.73238 2.146071,2.72192 0.762011,1.13473 1.452366,2.33822 2.008372,3.58625 0.521608,1.13145 0.924213,2.30434 1.328106,3.4818 0.228194,1.19038 0.642183,2.33681 0.697307,3.55664 0.215002,1.24324 0.594509,2.45508 0.564356,3.72975 0.122429,1.22844 0.368577,2.423 0.800286,3.58382 0.209902,1.1158 0.54549,2.16822 1.294067,3.05091 0.527834,0.47473 1.140083,1.09005 1.893041,0.78573 -2.925876,1.67955 -5.869309,3.32887 -8.777626,5.03865 -0.121431,0.0714 0.279553,-0.0551 0.40604,-0.11707 0.639626,-0.31346 0.956218,-0.89712 1.032807,-1.58297 0.305956,-1.29503 0.292901,-2.58301 0.235411,-3.91278 -0.0327,-1.2642 -0.07209,-2.53581 -0.328716,-3.77854 -0.272345,-1.20715 -0.531463,-2.39387 -0.614418,-3.63282 -0.23484,-1.12387 -0.664604,-2.18898 -0.847869,-3.3241 -0.332918,-1.04385 -0.725341,-2.06542 -1.07953,-3.10066 -0.428195,-1.00983 -0.751394,-2.06648 -1.212142,-3.06389 -0.469583,-1.16086 -0.82186,-2.36218 -1.421053,-3.46892 -0.497816,-1.31495 -1.185696,-2.54261 -1.72475,-3.84027 -0.476189,-0.99701 -0.942824,-1.99454 -1.419541,-2.99051 -0.594574,-1.16339 -1.04071,-2.39916 -1.570073,-3.59271 -0.539472,-1.09543 -0.978269,-2.24293 -1.645314,-3.27141 -0.567097,-1.16335 -1.316631,-2.2285 -1.877794,-3.3972 -0.60244,-1.0258 -1.070226,-2.10789 -1.617893,-3.16181 -0.451497,-1.08947 -1.139852,-2.0563 -1.561624,-3.15912 -0.569946,-1.16804 -1.104147,-2.35004 -1.645649,-3.53114 -0.575207,-1.36328 -0.974511,-2.79836 -1.507739,-4.17929 -0.503033,-1.31818 -0.783185,-2.68774 -1.181936,-4.03706 -0.37918,-1.1168 -0.70536,-2.26251 -1.027318,-3.393428 -0.334873,-1.31491 -0.664352,-2.61115 -0.797029,-3.96754 -0.25285,-1.4368 -0.293896,-2.86221 -0.244569,-4.32148 -0.0025,-1.41638 -0.0076,-2.83277 -0.0045,-4.24915 0.0084,-1.36949 0.01173,-2.74322 0.170251,-4.10544 0.173376,-1.17174 0.565819,-2.23612 0.921593,-3.34828 0.310244,-1.091 0.753217,-2.12348 1.009298,-3.23247 0.42501,-1.02079 0.381674,-2.22591 1.15794,-3.10371 0.375382,-1.0406 0.960855,-2.0144 1.549536,-2.94397 0.538412,-1.18854 1.395689,-2.17997 2.004059,-3.33529 0.726153,-1.00351 1.17576,-2.18173 1.888605,-3.19924 0.65138,-0.75358 1.069867,-1.69055 1.940424,-2.25497 0.547261,-0.72942 1.260601,-1.33957 1.914235,-1.9629 0.1084,-0.12594 0.182219,-0.29316 0.325201,-0.37783 3.145415,-1.86262 6.337816,-3.6448 9.516472,-5.45011 0.214473,-0.12181 0.885544,-0.43297 0.672438,-0.30879 -2.879314,1.67788 -5.768958,3.33797 -8.652345,5.00884 -0.112769,0.0654 0.226978,-0.12817 0.340468,-0.19226 4.329986,-2.50082 7.001565,-4.65001 11.055108,-6.05713 3.5221,-1.73232 8.861646,-4.31339 -6.834322,4.1095 3.101814,-1.77691 7.280614,-5.73275 11.605306,-5.71708 1.081391,0.004 2.16297,-5.3e-4 3.244124,0.0264 1.346929,0.0338 2.701412,0.0776 4.025364,0.35125 1.171174,0.2675 2.328437,0.57636 3.515633,0.768 1.085596,0.33195 2.140602,0.77502 3.182968,1.21985 0.931758,0.50242 1.892904,0.94813 2.834659,1.43156 1.030339,0.58563 2.076874,1.13798 3.067904,1.79112 1.174726,0.82156 2.372938,1.60504 3.60117,2.3449 1.055062,0.71399 2.117727,1.41472 3.170478,2.13179 1.018107,0.70498 2.051624,1.38611 3.03136,2.14573 0.855401,0.7025 1.657206,1.47036 2.562697,2.11088 0.89515,0.69115 1.77113,1.389 2.51796,2.2459 0.80631,0.89153 1.63681,1.76014 2.41198,2.67979 0.7077,0.86104 1.46537,1.67994 2.12766,2.57459 0.80007,0.82446 1.54524,1.71154 2.1651,2.68016 0.76155,1.11464 1.44942,2.28621 2.13183,3.44998 0.6694,1.06582 1.37809,2.09895 2.11168,3.12112 0.77007,0.99566 1.55761,1.98186 2.19487,3.07049 0.66254,0.94991 1.33249,1.88609 1.7826,2.95864 0.56426,0.99855 1.0333,2.04986 1.5633,3.06713 0.57032,1.09144 0.92859,2.26525 1.34076,3.42274 0.23048,1.1908 0.64886,2.3368 0.70382,3.55778 0.22016,1.2976 0.5932,2.568988 0.46302,3.900638 0,1.41416 -2e-5,2.82831 3.3e-4,4.24247 4.6e-4,1.4141 0.001,2.82821 0.003,4.24231 0.002,1.41746 0.006,2.83497 -0.008,4.25238 -0.0224,1.43663 -0.0561,2.8762 -0.2407,4.303 -0.19629,1.39063 -0.56417,2.75911 -0.45596,4.17394 -0.001,1.42461 6.2e-4,2.84996 -0.0642,4.27343 -0.0834,1.43875 -0.22733,2.87378 -0.54762,4.2819 -0.27589,1.40485 -0.14716,2.8634 -0.46149,4.26918 -0.27095,1.40518 -0.58165,2.78832 -0.70885,4.21743 -0.25559,1.29202 -0.56851,2.55788 -0.67925,3.87458 -0.26152,1.27869 -0.51094,2.51079 -0.37286,3.8314 -2.8e-4,1.41448 -7.1e-4,2.82896 -0.003,4.24343 -0.002,1.41341 -0.006,2.82682 -0.002,4.24023 0.01,1.39516 0.0186,2.79323 0.16095,4.18257 0.16693,1.36149 0.51309,2.68172 0.7176,4.03339 0.20446,1.25023 0.66347,2.4032 1.01215,3.6142 0.39744,1.20533 0.90992,2.38358 1.56771,3.47004 0.5113,0.98271 1.0091,1.97249 1.45619,2.98529 0.53873,1.07053 1.04297,2.15288 1.66381,3.17971 0.60302,1.06245 1.11609,2.17594 1.65882,3.2701 0.47653,1.05331 1.12751,2.02876 1.77905,2.9802 0.66037,1.09733 1.43027,2.12539 2.12568,3.19965 0.74086,1.08289 1.48535,2.1648 2.31826,3.18025 0.72171,1.00649 1.55324,1.93236 2.23732,2.96575 0.75139,1.06172 1.44303,2.16779 2.19265,3.23134 0.84193,1.13253 1.68272,2.26372 2.53742,3.38637 0.86333,1.16212 1.75764,2.2995 2.67978,3.41593 1.00574,1.13574 1.997,2.28277 3.04259,3.38351 0.75093,0.77405 1.49799,1.55243 2.31754,2.25499 0.92765,0.74246 1.88515,1.43847 2.87183,2.10086 1.11036,0.79437 2.2829,1.47487 3.51605,2.06379 1.2918,0.67476 2.5676,1.38061 3.80758,2.14716 1.29004,0.75378 2.63294,1.40237 3.97678,2.05447 1.23332,0.58832 2.46625,1.17891 3.73159,1.69639 1.24273,0.52979 2.48826,1.05136 3.81976,1.32558 2.28774,0.43485 4.59099,0.79448 6.92663,0.81476 0,0 -8.49814,6.17426 -8.49814,6.17426 z"
         style="fill:#ffd154;fill-opacity:1;stroke:#000000;stroke-opacity:1"
         inkscape:connector-curvature="0" />
    </pattern>
  </defs>
  <sodipodi:namedview
     id="base"
     pagecolor="#ffffff"
     bordercolor="#666666"
     borderopacity="1.0"
     inkscape:pageopacity="0.0"
     inkscape:pageshadow="2"
     inkscape:zoom="1.4142136"
     inkscape:cx="324.14703"
     inkscape:cy="373.98631"
     inkscape:document-units="px"
     inkscape:current-layer="layer1"
     showgrid="false"
     units="px"
     fit-margin-top="0"
     fit-margin-left="0"
     fit-margin-right="0"
     fit-margin-bottom="0"
     inkscape:window-width="2560"
     inkscape:window-height="1311"
     inkscape:window-x="2560"
     inkscape:window-y="27"
     inkscape:window-maximized="1" />
  <metadata
     id="metadata5">
    <rdf:RDF>
      <cc:Work
         rdf:about="">
        <dc:format>image/svg+xml</dc:format>
        <dc:type
           rdf:resource="http://purl.org/dc/dcmitype/StillImage" />
        <dc:title></dc:title>
      </cc:Work>
    </rdf:RDF>
  </metadata>
  <g
     inkscape:label="Layer 1"
     inkscape:groupmode="layer"
     id="layer1"
     transform="translate(0,-106.49998)">
    <ellipse
       style="fill:url(#linearGradient4519);fill-opacity:1;stroke:#000000;stroke-width:3;stroke-miterlimit:4;stroke-dasharray:none"
       id="path18"
       cx="315"
       cy="549"
       rx="198.01042"
       ry="185.51042"
       inkscape:export-xdpi="144"
       inkscape:export-ydpi="144" />
    <ellipse
       style="fill:url(#linearGradient4511);fill-opacity:1;stroke:#000000;stroke-width:3.5;stroke-miterlimit:4;stroke-dasharray:none"
       id="path10"
       cx="313.5"
       cy="378.99997"
       rx="150.5"
       ry="129.5"
       inkscape:export-xdpi="144"
       inkscape:export-ydpi="144" />
    <g
       id="g5292"
       transform="translate(4.2426407,-4.2426407)">
      <path
         sodipodi:nodetypes="cccc"
         inkscape:connector-curvature="0"
         id="path12"
         d="m 197,295.49998 c -23.6581,-31.02491 -15.01162,-66.06183 -13,-113 28.93942,25.09087 43.5824,42.12641 62,83 z"
         style="fill:#e7e6e3;fill-opacity:1;stroke:#000000;stroke-width:3;stroke-linecap:butt;stroke-linejoin:miter;stroke-miterlimit:4;stroke-dasharray:none;stroke-opacity:1" />
      <path
         sodipodi:nodetypes="cccc"
         inkscape:connector-curvature="0"
         id="path12-3"
         d="m 199.49459,277.8401 c -16.16862,-21.2033 -10.25937,-45.14852 -8.88457,-77.2274 19.77802,17.14781 29.78545,28.79038 42.37256,56.72455 z"
         style="fill:#ffd154;fill-opacity:1;stroke:#000000;stroke-width:1.5;stroke-linecap:butt;stroke-linejoin:miter;stroke-miterlimit:4;stroke-dasharray:none;stroke-opacity:1" />
    </g>
    <g
       id="g5296"
       transform="translate(0.70710678,-1.4142136)">
      <path
         style="fill:#e7e6e3;fill-opacity:1;stroke:#000000;stroke-width:3;stroke-linecap:butt;stroke-linejoin:miter;stroke-miterlimit:4;stroke-dasharray:none;stroke-opacity:1"
         d="m 423.93808,291.49998 c 23.6581,-31.02491 15.01162,-66.06183 13,-113 -28.93942,25.09087 -43.5824,42.12641 -62,83 z"
         id="path16"
         inkscape:connector-curvature="0"
         sodipodi:nodetypes="cccc" />
      <path
         style="fill:#ffd154;fill-opacity:1;stroke:#000000;stroke-width:1.5;stroke-linecap:butt;stroke-linejoin:miter;stroke-miterlimit:4;stroke-dasharray:none;stroke-opacity:1"
         d="m 421.0054,273.0901 c 16.16862,-21.2033 10.25937,-45.14852 8.88457,-77.2274 -19.77802,17.14781 -29.78545,28.79038 -42.37256,56.72455 z"
         id="path4536"
         inkscape:connector-curvature="0"
         sodipodi:nodetypes="cccc" />
    </g>
  </g>
</svg>
